<svg width="190" height="320" viewBox="0 0 190 320" fill="none" xmlns="http://www.w3.org/2000/svg">
<path fill-rule="evenodd" clip-rule="evenodd" d="M112.052 1.66929C113.554 1.14089 115.216 1.8846 115.764 3.33046C116.313 4.77631 115.541 6.37662 114.039 6.90505C105.388 9.9496 101.63 12.5849 99.5863 16.4344C98.5543 18.3784 97.8684 20.805 97.3999 24.079C116.295 25.5052 130.607 43.0147 130.607 63.5653C130.607 69.8452 133.233 74.9002 135.183 77.2477C135.346 77.4445 135.794 77.9015 136.657 78.7735C139.793 81.9436 146.598 88.8171 152.615 97.9665C158.616 107.091 163.992 118.715 163.992 131.391C163.992 143.844 159.192 156.212 150.181 166.218C155.555 167.799 159.866 168.565 162.631 168.377C169.108 167.938 173.307 166.444 176.271 164.414C179.24 162.38 181.242 159.625 183.01 156.174C183.717 154.793 185.453 154.226 186.887 154.907C188.321 155.588 188.91 157.259 188.203 158.64C186.213 162.525 183.68 166.181 179.627 168.956C175.571 171.735 170.263 173.448 163.038 173.938C159.036 174.21 153.658 173.101 147.969 171.395C147.222 171.171 146.463 170.934 145.694 170.686C140.031 175.755 133.122 180.003 125.064 183.051H171.133C172.03 183.051 172.833 183.444 173.363 184.061C174.005 184.573 174.414 185.345 174.414 186.21C174.414 187.749 173.118 188.997 171.519 188.997H96.6072C95.4771 188.997 94.3539 188.872 93.2609 188.625H88.5744C87.7426 188.87 86.8723 188.997 85.9932 188.997H18.678C17.0793 188.997 15.7833 187.749 15.7832 186.21C15.7832 185.121 16.4314 184.179 17.3761 183.72C17.882 183.303 18.5388 183.051 19.2569 183.051H64.7465C43.3119 174.942 30.0038 158.347 26.655 140.391C16.9225 146.039 10.6185 154.971 7.12623 164.469C6.59265 165.92 4.93832 166.68 3.43133 166.167C1.92439 165.653 1.1351 164.06 1.66849 162.609C5.78667 151.408 13.6074 140.673 25.9113 134.385C25.8499 133.389 25.8182 132.39 25.8182 131.391C25.8183 118.715 31.1945 107.091 37.1955 97.9665C43.2125 88.8172 50.0173 81.9437 53.1533 78.7735C54.0158 77.9016 54.4639 77.4445 54.6274 77.2477C56.5775 74.9001 59.2035 69.8451 59.2036 63.5653C59.2036 43.3273 73.0832 26.0386 91.5513 24.1552C91.5701 24.0082 91.5885 23.862 91.6082 23.7171C92.1193 19.9519 92.9367 16.7124 94.4316 13.8967C97.5171 8.08528 103.083 4.82586 112.052 1.66929ZM103.708 151.842C104.326 153.363 104.742 154.947 104.923 156.546C105.778 164.069 103.939 174.911 96.6815 182.662C114.802 182.323 129.192 176.798 139.485 168.528C136.16 167.298 132.75 165.926 129.379 164.484C119.727 160.356 110.209 155.586 103.708 151.842ZM99.168 157.152C98.3649 150.08 91.3199 143.923 83.7932 145.106C80.3505 145.647 77.6346 148.15 75.8018 151.848C73.9705 155.544 73.2928 159.949 73.6609 163.241C74.346 169.365 78.9815 176.59 89.863 181.229C97.7167 175.083 100.007 164.545 99.168 157.152ZM81.8419 139.8C72.6255 136.166 61.3271 133.661 47.9756 134.361C42.0092 134.673 36.7261 135.87 32.08 137.744C34.9704 157.215 51.0793 175.828 78.5341 181.16C72.0258 176.171 68.5869 169.937 67.9047 163.837C67.4207 159.51 68.2872 154.067 70.5766 149.447C72.733 145.096 76.3941 141.043 81.8419 139.8ZM96.8424 29.6308C96.7365 31.1538 96.6497 32.7961 96.5691 34.5748C100.821 34.9398 104.804 36.6285 108.102 38.7689C109.428 39.6292 109.778 41.3616 108.885 42.6382C107.991 43.9147 106.192 44.2523 104.867 43.392C100.816 40.7633 96.2128 39.3975 91.9157 40.4185C87.7169 41.4162 82.9806 44.8965 79.0376 53.705C77.673 56.7537 77.354 59.9302 77.023 63.8821C76.6988 67.7531 76.3644 72.2442 74.6967 77.2401C72.9812 82.3793 69.5774 87.118 66.4324 90.8184C64.8431 92.6884 63.2811 94.3374 61.9732 95.6796C60.61 97.0785 59.6521 98.0168 59.069 98.6604C57.9126 99.9369 55.6245 102.763 53.2928 106.145C50.9478 109.545 48.6811 113.333 47.4464 116.56C46.8937 118.004 45.2297 118.744 43.7297 118.212C42.2297 117.679 41.4618 116.077 42.0143 114.633C43.4813 110.798 46.0388 106.587 48.4698 103.061C50.9138 99.5165 53.3537 96.4888 54.7066 94.9955C55.378 94.2543 56.5416 93.1065 57.7513 91.8651C59.0164 90.5669 60.4796 89.0202 61.952 87.2877C64.9307 83.7831 67.7987 79.6861 69.1847 75.5343C70.6184 71.2392 70.923 67.3678 71.2524 63.4343C71.5751 59.5817 71.9248 55.5108 73.7209 51.4983C78.096 41.7245 83.9739 36.5638 90.5287 35.0063C90.6048 34.9883 90.681 34.9708 90.7571 34.9537C90.8359 33.1492 90.921 31.4493 91.0258 29.8479C76.6326 31.9969 64.993 45.9309 64.993 63.5653C64.993 71.2436 61.8288 77.5026 59.1482 80.7298C58.7833 81.169 58.0899 81.8659 57.3454 82.6185C54.2405 85.7571 47.7774 92.2959 42.0867 100.949C36.3797 109.627 31.6077 120.197 31.6077 131.391C31.6077 131.567 31.6089 131.743 31.6111 131.919C36.3858 130.204 41.7246 129.105 47.6605 128.794C72.4514 127.494 90.6596 136.509 101.973 144.162C107.248 147.731 119.263 154.057 131.729 159.389C135.948 161.194 140.184 162.868 144.192 164.274C153.398 154.911 158.203 143.064 158.203 131.391C158.203 120.197 153.431 109.627 147.724 100.949C142.033 92.2958 135.57 85.757 132.465 82.6185C131.721 81.8659 131.027 81.169 130.662 80.7298C127.982 77.5026 124.817 71.2437 124.817 63.5653C124.817 45.1442 112.116 30.7605 96.8424 29.6308Z" fill="#795548" stroke="#795548" stroke-width="3" stroke-linecap="round" stroke-linejoin="round"/>
<path d="M118.835 212.595V230.62H112.437V212.595H118.835ZM99.3359 225.084C98.0234 226.598 96.4079 227.816 94.4895 228.739C92.5711 229.662 90.5012 230.146 88.2799 230.194V224.8C89.6935 224.706 90.9429 224.339 92.0284 223.701C93.139 223.062 94.0351 222.246 94.7166 221.252C95.3982 220.235 95.8399 219.147 96.0418 217.988H88.7343V212.949H109.635V217.988H102.516C102.441 218.768 102.264 219.596 101.986 220.472L110.846 225.581L107.552 229.945L99.3359 225.084ZM89.7566 231.684H118.835V243.251H112.323V236.829H89.7566V231.684Z" fill="#795548"/>
<path d="M83.3911 212.595V243.251H77.2785V212.595H83.3911ZM68.0553 218.877C67.9829 221.629 67.7298 224.178 67.2957 226.523L76.2657 238.082L71.419 241.672L65.1979 233.272C63.944 236 62.3526 238.094 60.4235 239.554C58.5186 241.038 56.3967 241.791 54.0577 241.815V235.713C55.5527 235.545 56.8789 234.755 58.0364 233.344C59.1938 231.908 60.1101 229.945 60.7852 227.456C61.4604 224.967 61.8341 222.107 61.9065 218.877H54.9258V213.313H74.6743V218.877H68.0553Z" fill="#795548"/>
<path d="M51.6133 218.374V224.261H47.9547V235.282H41.7718V212.595H47.9547V218.374H51.6133ZM29.5157 224.764C28.1743 226.655 26.5645 228.162 24.6865 229.287C22.8328 230.412 20.8084 231.022 18.6133 231.118V225.482C20.223 225.29 21.6499 224.62 22.8938 223.472C24.1377 222.299 25.1133 220.779 25.8206 218.913C26.5279 217.046 26.8938 214.988 26.9182 212.738L33.1377 213.097C33.1377 215.49 32.7474 217.776 31.9669 219.954L40.8572 226.451L37.1621 230.687L29.5157 224.764ZM26.6621 237.795H48.3938V243.251H20.3694V232.518H26.6621V237.795Z" fill="#795548"/>
<path d="M163.093 243.07H126.906V227.022H163.093V243.07ZM135.018 236.752H154.983V233.34H135.018V236.752ZM154.718 197.231C154.978 197.963 157.498 198.399 159.255 198.99C160.019 199.247 160.546 199.687 160.89 200.156C161.559 199.328 162.756 198.512 164.488 198.486C167.12 198.448 170.702 198.946 171.391 198.074C171.382 198.097 168.452 205.633 163.093 205.047V210.466H167.893V218.029H163.093V225.639H154.983V203.688H158.641C154.925 202.91 154.718 197.231 154.718 197.231ZM151.767 210.374H148.312V217.983C150.199 217.799 151.783 217.461 153.063 216.969V223.056C152.039 223.486 150.551 223.824 148.6 224.07C146.648 224.316 144.664 224.439 142.649 224.439H124.651V218.26H128.395V210.374H124.939V204.148H151.767V210.374ZM136.073 218.26H140.633V210.374H136.073V218.26ZM156.272 199.189C159.03 200.18 159.716 201.997 160.171 203.688H161.57C162.905 201.86 164.71 200.162 168.398 200.033C168.398 200.033 163.313 199.151 160.825 203.304C160.825 203.304 160.736 203.181 160.627 202.981C160.604 202.999 160.592 203.01 160.592 203.01C160.578 202.945 160.561 202.881 160.545 202.818C160.444 202.609 160.339 202.349 160.284 202.065C159.182 199.606 156.306 199.193 156.272 199.189Z" fill="#38B45C"/>
<path d="M163.093 243.07H126.906V227.022H163.093V243.07ZM135.018 236.752H154.983V233.34H135.018V236.752ZM154.718 197.231C154.978 197.963 157.498 198.399 159.255 198.99C160.019 199.247 160.546 199.687 160.89 200.156C161.559 199.328 162.756 198.512 164.488 198.486C167.12 198.448 170.702 198.946 171.391 198.074C171.382 198.097 168.452 205.633 163.093 205.047V210.466H167.893V218.029H163.093V225.639H154.983V203.688H158.641C154.925 202.91 154.718 197.231 154.718 197.231ZM151.767 210.374H148.312V217.983C150.199 217.799 151.783 217.461 153.063 216.969V223.056C152.039 223.486 150.551 223.824 148.6 224.07C146.648 224.316 144.664 224.439 142.649 224.439H124.651V218.26H128.395V210.374H124.939V204.148H151.767V210.374ZM136.073 218.26H140.633V210.374H136.073V218.26ZM156.272 199.189C159.03 200.18 159.716 201.997 160.171 203.688H161.57C162.905 201.86 164.71 200.162 168.398 200.033C168.398 200.033 163.313 199.151 160.825 203.304C160.825 203.304 160.736 203.181 160.627 202.981C160.604 202.999 160.592 203.01 160.592 203.01C160.578 202.945 160.561 202.881 160.545 202.818C160.444 202.609 160.339 202.349 160.284 202.065C159.182 199.606 156.306 199.193 156.272 199.189Z" fill="black" fill-opacity="0.2"/>
</svg>
