<svg xmlns="http://www.w3.org/2000/svg" width="100" height="100" viewBox="0 0 100 100" fill="none">
  <path d="M72.9688 92.6562H46.7188M35.7812 55.4688H64.2188M35.7812 40.1562H64.2188M35.7812 24.8438H64.2188M86.0938 0.78125H79.5312V24.8438H99.2188V13.9062C99.2187 10.4253 97.8359 7.08689 95.3745 4.62547C92.9131 2.16406 89.5747 0.78125 86.0938 0.78125Z" stroke="#2E2E2E" stroke-width="1.5" stroke-linecap="round" stroke-linejoin="round"/>
  <path d="M56.5625 72.9688H13.9062C10.4253 72.9688 7.08689 74.3516 4.62547 76.813C2.16406 79.2744 0.78125 82.6128 0.78125 86.0938V99.2188H46.7188V82.8125C46.7188 80.2018 47.7559 77.698 49.6019 75.8519C51.448 74.0059 53.9518 72.9688 56.5625 72.9688ZM56.5625 72.9688C59.1732 72.9688 61.677 74.0059 63.5231 75.8519C65.3691 77.698 66.4062 80.2018 66.4062 82.8125V86.0938C66.4063 87.8342 67.0977 89.5034 68.3284 90.7341C69.5591 91.9648 71.2283 92.6562 72.9688 92.6562C74.7092 92.6562 76.3784 91.9648 77.6091 90.7341C78.8398 89.5034 79.5312 87.8342 79.5312 86.0938V0.78125H33.5938C30.1128 0.78125 26.7744 2.16406 24.313 4.62547C21.8516 7.08689 20.4688 10.4253 20.4688 13.9062V72.9688" stroke="#2E2E2E" stroke-width="1.5" stroke-linecap="round" stroke-linejoin="round"/>
</svg>