<svg xmlns="http://www.w3.org/2000/svg" width="9" height="8" viewBox="0 0 9 8" fill="none">
  <path d="M1.21289 1.39844C2.07986 0.43275 3.58941 0.403244 4.49902 1.30762C4.68232 1.12554 4.8955 0.975346 5.13086 0.865234C5.40184 0.738474 5.69566 0.665872 5.99512 0.652344C6.29464 0.638839 6.59437 0.684336 6.87598 0.786133C7.15754 0.887935 7.41602 1.04436 7.63574 1.24609C7.85543 1.44785 8.03252 1.69136 8.15527 1.96191C8.27795 2.23244 8.34395 2.52482 8.34961 2.82129C8.35525 3.11788 8.29991 3.41251 8.1875 3.6875C8.10326 3.89355 7.98828 4.08537 7.84668 4.25684L7.69629 4.42188L4.90137 7.18555C4.84823 7.23804 4.78549 7.27953 4.7168 7.30762C4.64795 7.33575 4.57417 7.34961 4.5 7.34961C4.42583 7.34961 4.35204 7.33575 4.2832 7.30762C4.21451 7.27953 4.15176 7.23804 4.09863 7.18555L1.30371 4.42188C0.901889 4.0242 0.668345 3.49 0.651367 2.92773C0.634489 2.36551 0.835514 1.81889 1.21289 1.39844Z" stroke="#5A5A5A" stroke-width="0.7"/>
</svg>