<svg width="115" height="150" viewBox="0 0 115 150" fill="none" xmlns="http://www.w3.org/2000/svg">
<path fill-rule="evenodd" clip-rule="evenodd" d="M67.6207 2.1012C68.512 1.78684 69.4985 2.2293 69.8243 3.0895C70.15 3.94969 69.6915 4.90177 68.8002 5.21615C63.6651 7.02747 61.4344 8.5953 60.2213 10.8855C59.6087 12.0421 59.2016 13.4858 58.9234 15.4335C70.1392 16.282 78.6346 26.6991 78.6346 38.9254C78.6346 42.6616 80.1934 45.6689 81.3509 47.0656C81.4479 47.1826 81.7138 47.4545 82.2259 47.9734C84.0874 49.8593 88.1266 53.9486 91.6982 59.3919C95.2603 64.8207 98.4515 71.7361 98.4515 79.2776C98.4515 86.6864 95.6023 94.0444 90.2531 99.997C93.443 100.938 96.0026 101.393 97.6436 101.282C101.488 101.021 103.98 100.132 105.74 98.9239C107.502 97.7141 108.691 96.0747 109.74 94.0215C110.16 93.2002 111.19 92.8629 112.041 93.2679C112.892 93.673 113.242 94.6673 112.822 95.4887C111.641 97.7999 110.138 99.975 107.732 101.626C105.325 103.279 102.174 104.299 97.8853 104.59C95.5094 104.752 92.3174 104.092 88.9405 103.077C88.4968 102.944 88.0464 102.803 87.5903 102.656C84.2284 105.671 80.1272 108.198 75.3441 110.012H102.69C103.223 110.012 103.699 110.246 104.014 110.613C104.395 110.917 104.637 111.377 104.637 111.891C104.637 112.807 103.868 113.549 102.919 113.549H58.4529C57.7821 113.549 57.1154 113.475 56.4666 113.328H53.6848C53.191 113.474 52.6745 113.549 52.1527 113.549H12.1955C11.2465 113.549 10.4772 112.807 10.4772 111.891C10.4772 111.244 10.862 110.683 11.4227 110.41C11.723 110.162 12.1128 110.012 12.5391 110.012H39.541C26.8177 105.188 18.9183 95.3148 16.9305 84.6319C11.1535 87.992 7.41151 93.3058 5.33855 98.9569C5.02182 99.8202 4.03984 100.272 3.14532 99.9668C2.25082 99.6611 1.78232 98.7134 2.09893 97.8501C4.54341 91.1862 9.18568 84.7998 16.4891 81.0588C16.4526 80.4659 16.4338 79.8719 16.4338 79.2776C16.4338 71.7361 19.6251 64.8207 23.1871 59.3919C26.7587 53.9487 30.7979 49.8594 32.6594 47.9734C33.1714 47.4546 33.4374 47.1827 33.5345 47.0656C34.692 45.6689 36.2508 42.6615 36.2508 38.9254C36.2508 26.8851 44.4895 16.5994 55.4518 15.4789C55.463 15.3914 55.4739 15.3045 55.4856 15.2183C55.789 12.9782 56.2742 11.0509 57.1615 9.37575C58.993 5.91832 62.2967 3.97917 67.6207 2.1012ZM62.668 91.4444C63.0345 92.3495 63.2815 93.2916 63.3893 94.2432C63.8963 98.719 62.8049 105.169 58.497 109.78C69.2529 109.579 77.7946 106.291 83.9043 101.372C81.9308 100.64 79.9068 99.8234 77.9056 98.9655C72.1765 96.5096 66.5265 93.6718 62.668 91.4444ZM59.9729 94.6038C59.4963 90.3962 55.3145 86.7331 50.8467 87.437C48.8032 87.7591 47.1911 89.2477 46.1032 91.4481C45.0162 93.6467 44.6139 96.2679 44.8324 98.226C45.2391 101.87 47.9906 106.168 54.4497 108.928C59.1115 105.271 60.4712 99.002 59.9729 94.6038ZM49.6885 84.2802C44.2178 82.1185 37.5113 80.6277 29.5861 81.0441C26.0445 81.2302 22.9085 81.9421 20.1507 83.0568C21.8664 94.641 31.4283 105.714 47.725 108.887C43.8618 105.919 41.8205 102.21 41.4156 98.581C41.1283 96.0065 41.6427 92.7683 43.0016 90.0197C44.2816 87.4309 46.4548 85.02 49.6885 84.2802ZM58.5925 18.7366C58.5297 19.6426 58.4781 20.6197 58.4303 21.6779C60.9542 21.8951 63.3182 22.8997 65.276 24.1731C66.063 24.685 66.271 25.7156 65.7407 26.4751C65.2104 27.2345 64.1424 27.4354 63.3555 26.9236C60.951 25.3597 58.2188 24.5471 55.6681 25.1545C53.1758 25.7481 50.3644 27.8187 48.0239 33.0591C47.2139 34.873 47.0246 36.7628 46.8281 39.1139C46.6356 41.4169 46.4371 44.0888 45.4472 47.0611C44.4289 50.1186 42.4085 52.9378 40.5417 55.1393C39.5983 56.2518 38.6711 57.2329 37.8947 58.0314C37.0856 58.8636 36.517 59.4219 36.1709 59.8048C35.4845 60.5642 34.1263 62.2456 32.7422 64.2574C31.3503 66.2807 30.0048 68.534 29.2719 70.4538C28.9438 71.3131 27.9561 71.7531 27.0657 71.4365C26.1753 71.1199 25.7195 70.1666 26.0475 69.3073C26.9183 67.0262 28.4364 64.5203 29.8794 62.4229C31.3301 60.3141 32.7784 58.5128 33.5814 57.6244C33.98 57.1834 34.6707 56.5006 35.3887 55.762C36.1397 54.9896 37.0082 54.0695 37.8822 53.0388C39.6503 50.9537 41.3527 48.5163 42.1754 46.0462C43.0264 43.4909 43.2072 41.1877 43.4028 38.8475C43.5943 36.5554 43.8019 34.1335 44.868 31.7463C47.465 25.9315 50.954 22.8612 54.8448 21.9346C54.89 21.9239 54.9353 21.9135 54.9804 21.9033C55.0271 20.8298 55.0777 19.8184 55.1399 18.8657C46.5964 20.1442 39.6873 28.434 39.6873 38.9254C39.6873 43.4935 37.8091 47.2172 36.2179 49.1372C36.0013 49.3985 35.5897 49.8131 35.1478 50.2609C33.3048 52.1281 29.4684 56.0183 26.0905 61.1664C22.7029 66.3293 19.8703 72.6177 19.8703 79.2776C19.8703 79.3823 19.871 79.4871 19.8723 79.5918C22.7065 78.571 25.8755 77.9174 29.399 77.7322C44.1144 76.959 54.9225 82.3223 61.638 86.8756C64.7691 88.9987 71.901 92.7623 79.3006 95.9344C81.8052 97.008 84.3196 98.0044 86.6985 98.8409C92.1632 93.2703 95.015 86.2219 95.015 79.2776C95.015 72.6177 92.1825 66.3293 88.7948 61.1664C85.4169 56.0183 81.5805 52.1281 79.7375 50.2609C79.2956 49.8131 78.884 49.3985 78.6674 49.1372C77.0762 47.2172 75.1981 43.4935 75.1981 38.9254C75.1981 27.966 67.6587 19.4086 58.5925 18.7366Z" fill="#795548" stroke="#795548" stroke-width="3" stroke-linecap="round" stroke-linejoin="round"/>
<path d="M71.6473 127.588V138.312H67.849V127.588H71.6473ZM60.0727 135.019C59.2936 135.92 58.3346 136.644 57.1959 137.193C56.0572 137.742 54.8285 138.031 53.51 138.059V134.85C54.3491 134.794 55.0907 134.576 55.735 134.196C56.3943 133.816 56.9262 133.33 57.3307 132.739C57.7353 132.134 57.9975 131.487 58.1174 130.797H53.7797V127.799H66.1859V130.797H61.9606C61.9156 131.261 61.8107 131.754 61.6459 132.275L66.9051 135.315L64.9497 137.911L60.0727 135.019ZM54.3865 138.945H71.6473V145.827H67.7816V142.006H54.3865V138.945Z" fill="#795548"/>
<path d="M50.6081 127.588V145.827H46.9797V127.588H50.6081ZM41.505 131.326C41.462 132.963 41.3118 134.48 41.0541 135.875L46.3786 142.752L43.5016 144.887L39.8089 139.89C39.0646 141.513 38.12 142.759 36.9749 143.627C35.8442 144.51 34.5847 144.959 33.1963 144.973V141.342C34.0837 141.243 34.8709 140.773 35.5579 139.933C36.245 139.078 36.7889 137.911 37.1896 136.43C37.5904 134.949 37.8122 133.248 37.8552 131.326H33.7116V128.016H45.4339V131.326H41.505Z" fill="#795548"/>
<path d="M31.7452 131.027V134.529H29.5736V141.086H25.9035V127.588H29.5736V131.027H31.7452ZM18.6285 134.828C17.8322 135.953 16.8767 136.85 15.7619 137.519C14.6616 138.189 13.46 138.552 12.157 138.609V135.256C13.1125 135.142 13.9594 134.743 14.6978 134.06C15.4362 133.362 16.0153 132.458 16.4351 131.347C16.855 130.237 17.0721 129.012 17.0866 127.674L20.7784 127.887C20.7784 129.311 20.5468 130.671 20.0835 131.967L25.3606 135.832L23.1672 138.352L18.6285 134.828ZM16.9346 142.581H29.8342V145.827H13.1994V139.441H16.9346V142.581Z" fill="#795548"/>
<path d="M97.9182 145.719H76.4377V136.171H97.9182V145.719ZM81.2522 141.96H93.1038V139.93H81.2522V141.96ZM92.9465 118.448C93.1006 118.884 94.5957 119.143 95.6389 119.495C96.0923 119.648 96.4055 119.909 96.6096 120.188C97.0067 119.695 97.7176 119.21 98.7454 119.195C100.308 119.172 102.434 119.468 102.843 118.95C102.837 118.965 101.099 123.444 97.9182 123.095V126.322H100.767V130.822H97.9182V135.348H93.1038V122.289H95.2795C93.0697 121.829 92.9465 118.448 92.9465 118.448ZM91.1946 126.267H89.1438V130.794C90.2642 130.685 91.2045 130.484 91.9641 130.191V133.812C91.3564 134.068 90.4731 134.269 89.3147 134.416C88.1563 134.562 86.9788 134.635 85.7825 134.635H75.0989V130.958H77.3215V126.267H75.2698V122.563H91.1946V126.267ZM81.8792 130.958H84.5852V126.267H81.8792V130.958ZM93.8684 119.613C95.5056 120.202 95.9126 121.283 96.1829 122.289H97.0139C97.8065 121.202 98.8772 120.191 101.066 120.115C101.022 120.107 98.0373 119.608 96.5715 122.061C96.5715 122.061 96.5181 121.988 96.4534 121.869C96.4398 121.879 96.4329 121.886 96.4329 121.886C96.4246 121.847 96.4141 121.809 96.4045 121.771C96.3452 121.648 96.2846 121.495 96.2522 121.329C95.5954 119.852 93.8684 119.613 93.8684 119.613Z" fill="#38B45C"/>
<path d="M97.9182 145.719H76.4377V136.171H97.9182V145.719ZM81.2522 141.96H93.1038V139.93H81.2522V141.96ZM92.9465 118.448C93.1006 118.884 94.5957 119.143 95.6389 119.495C96.0923 119.648 96.4055 119.909 96.6096 120.188C97.0067 119.695 97.7176 119.21 98.7454 119.195C100.308 119.172 102.434 119.468 102.843 118.95C102.837 118.965 101.099 123.444 97.9182 123.095V126.322H100.767V130.822H97.9182V135.348H93.1038V122.289H95.2795C93.0697 121.829 92.9465 118.448 92.9465 118.448ZM91.1946 126.267H89.1438V130.794C90.2642 130.685 91.2045 130.484 91.9641 130.191V133.812C91.3564 134.068 90.4731 134.269 89.3147 134.416C88.1563 134.562 86.9788 134.635 85.7825 134.635H75.0989V130.958H77.3215V126.267H75.2698V122.563H91.1946V126.267ZM81.8792 130.958H84.5852V126.267H81.8792V130.958ZM93.8684 119.613C95.5056 120.202 95.9126 121.283 96.1829 122.289H97.0139C97.8065 121.202 98.8772 120.191 101.066 120.115C101.022 120.107 98.0373 119.608 96.5715 122.061C96.5715 122.061 96.5181 121.988 96.4534 121.869C96.4398 121.879 96.4329 121.886 96.4329 121.886C96.4246 121.847 96.4141 121.809 96.4045 121.771C96.3452 121.648 96.2846 121.495 96.2522 121.329C95.5954 119.852 93.8684 119.613 93.8684 119.613Z" fill="black" fill-opacity="0.2"/>
</svg>
