<svg width="40" height="38" viewBox="0 0 40 38" fill="none" xmlns="http://www.w3.org/2000/svg">
<g filter="url(#filter0_dddd_88_570)">
<rect x="1" y="1" width="33" height="33" rx="16.5" fill="#2E2E2E"/>
<rect x="1.5" y="1.5" width="32" height="32" rx="16" stroke="#FAFAFA"/>
</g>
<path fill-rule="evenodd" clip-rule="evenodd" d="M14.1041 9.45868C13.4898 9.45868 13.0687 9.45868 12.6929 9.56068C12.304 9.66743 11.9419 9.85479 11.63 10.1106C11.3182 10.3664 11.0637 10.6849 10.8829 11.0455C10.7088 11.3922 10.6268 11.8056 10.5064 12.4084L10.0309 14.7844C9.94664 15.2009 9.95478 15.6308 10.0547 16.0439C10.1546 16.4569 10.3439 16.843 10.6091 17.175V19.2803C10.6091 20.6899 10.6091 21.8066 10.7265 22.6802C10.8477 23.579 11.1023 24.3069 11.676 24.8813C12.2496 25.455 12.9775 25.7096 13.8771 25.8308C14.7507 25.9481 15.8674 25.9481 17.2762 25.9481H18.1299C19.5395 25.9481 20.6562 25.9481 21.5298 25.8308C22.4286 25.7096 23.1565 25.455 23.7309 24.8813C24.3046 24.3069 24.5592 23.579 24.6804 22.6802C24.7977 21.8058 24.7977 20.6899 24.7977 19.2803V17.1757C25.063 16.8436 25.2522 16.4573 25.352 16.0442C25.4517 15.631 25.4597 15.201 25.3753 14.7844L24.8997 12.4084C24.7801 11.8056 24.6973 11.3922 24.5239 11.0455C24.3431 10.6848 24.0885 10.3663 23.7765 10.1105C23.4645 9.85465 23.1022 9.66733 22.7132 9.56068C22.3381 9.45868 21.9171 9.45868 21.302 9.45868H14.1041ZM22.5107 18.2786C22.901 18.2793 23.2876 18.2016 23.6473 18.0501V19.2373C23.6473 20.6999 23.6458 21.7391 23.5399 22.5275C23.4364 23.2983 23.2416 23.7431 22.9172 24.0676C22.5928 24.392 22.1479 24.5868 21.3756 24.6903C20.984 24.7384 20.5904 24.7676 20.196 24.7778V22.664C20.196 22.3266 20.196 22.0351 20.1746 21.7974C20.1515 21.5443 20.1009 21.2943 19.9644 21.0588C19.8131 20.7964 19.5954 20.5785 19.3332 20.4268C19.0978 20.2911 18.8477 20.2405 18.5946 20.2175C18.3569 20.196 18.0654 20.196 17.728 20.196H17.6781C17.3407 20.196 17.05 20.196 16.8115 20.2175C16.5584 20.2405 16.3091 20.2911 16.0737 20.4268C15.8112 20.5784 15.5932 20.7963 15.4417 21.0588C15.3059 21.2943 15.2553 21.5443 15.2323 21.7966C15.2108 22.0359 15.2108 22.3266 15.2108 22.6633V24.7778C14.816 24.7676 14.4218 24.7385 14.0297 24.6903C13.259 24.5868 12.8141 24.392 12.4897 24.0676C12.1653 23.7431 11.9705 23.2983 11.8669 22.5268C11.7603 21.7391 11.7596 20.6999 11.7596 19.2373V18.0501C12.3725 18.3086 13.0553 18.3502 13.6951 18.1681C14.3349 17.986 14.8934 17.591 15.2783 17.0484C15.5566 17.4305 15.9215 17.7412 16.343 17.955C16.7645 18.1689 17.2308 18.2798 17.7034 18.2786C18.1761 18.2798 18.6423 18.1689 19.0639 17.955C19.4854 17.7412 19.8503 17.4305 20.1285 17.0484C20.3981 17.4292 20.7552 17.7396 21.1698 17.9537C21.5843 18.1678 22.0441 18.2792 22.5107 18.2786ZM16.3613 24.7962C16.6588 24.7972 16.9784 24.7977 17.32 24.7977H18.0869C18.4285 24.7977 18.748 24.7972 19.0456 24.7962V22.6886C19.0456 22.3197 19.0448 22.0812 19.0287 21.9009C19.0134 21.7284 18.9865 21.6655 18.9681 21.634C18.9177 21.5468 18.8452 21.4743 18.758 21.4239C18.7266 21.4055 18.6637 21.3794 18.4911 21.3633C18.2289 21.3473 17.9661 21.3417 17.7034 21.3464C17.3345 21.3464 17.096 21.3464 16.9158 21.3633C16.7424 21.3786 16.6803 21.4055 16.6489 21.4239C16.5614 21.4742 16.4886 21.5467 16.438 21.634C16.4203 21.6647 16.3935 21.7284 16.3781 21.9009C16.362 22.0812 16.3613 22.3197 16.3613 22.6886V24.7962ZM15.1495 10.6091H14.1893C13.4576 10.6091 13.2037 10.6145 12.9982 10.6705C12.7649 10.7345 12.5476 10.8468 12.3605 11.0002C12.1734 11.1536 12.0207 11.3446 11.9122 11.5609C11.8163 11.7519 11.7619 11.9988 11.6184 12.7167L11.1598 15.0099C11.1109 15.2458 11.1107 15.4893 11.1591 15.7253C11.2075 15.9613 11.3036 16.185 11.4414 16.3827C11.5793 16.5803 11.756 16.7478 11.9607 16.8748C12.1655 17.0018 12.394 17.0857 12.6323 17.1214C12.8706 17.1571 13.1137 17.1438 13.3467 17.0823C13.5797 17.0208 13.7976 16.9124 13.9873 16.7638C14.177 16.6152 14.3343 16.4295 14.4498 16.218C14.5652 16.0065 14.6363 15.7736 14.6586 15.5337L14.7116 15.0076L14.7146 14.9754L15.1495 10.6091ZM15.8559 15.1149L16.3068 10.6091H19.1001L19.548 15.0896C19.5731 15.346 19.5444 15.6048 19.464 15.8495C19.3835 16.0942 19.2529 16.3194 19.0805 16.5108C18.9081 16.7022 18.6977 16.8556 18.4627 16.9612C18.2277 17.0667 17.9734 17.1222 17.7158 17.1239C17.4582 17.1257 17.203 17.0738 16.9666 16.9714C16.7302 16.8691 16.5178 16.7186 16.3428 16.5296C16.1678 16.3406 16.0341 16.1171 15.9503 15.8736C15.8664 15.63 15.8343 15.3716 15.8559 15.1149ZM22.4087 10.6705C22.2031 10.6145 21.9493 10.6091 21.2176 10.6091H20.2559L20.749 15.5329C20.7721 15.7722 20.8436 16.0042 20.9593 16.2149C21.0749 16.4256 21.2322 16.6105 21.4216 16.7584C21.6111 16.9064 21.8286 17.0142 22.061 17.0754C22.2934 17.1366 22.5359 17.1498 22.7736 17.1142C23.0113 17.0787 23.2393 16.9951 23.4436 16.8686C23.648 16.7422 23.8245 16.5754 23.9623 16.3785C24.1002 16.1817 24.1965 15.9588 24.2455 15.7235C24.2944 15.4882 24.295 15.2454 24.2471 15.0099L23.7892 12.7167C23.645 11.9988 23.5906 11.7519 23.4955 11.5609C23.3869 11.3446 23.234 11.1535 23.0468 11.0001C22.8596 10.8467 22.6421 10.7344 22.4087 10.6705Z" fill="#FAFAFA"/>
<defs>
<filter id="filter0_dddd_88_570" x="0" y="0" width="40" height="38" filterUnits="userSpaceOnUse" color-interpolation-filters="sRGB">
<feFlood flood-opacity="0" result="BackgroundImageFix"/>
<feColorMatrix in="SourceAlpha" type="matrix" values="0 0 0 0 0 0 0 0 0 0 0 0 0 0 0 0 0 0 127 0" result="hardAlpha"/>
<feOffset/>
<feGaussianBlur stdDeviation="0.5"/>
<feColorMatrix type="matrix" values="0 0 0 0 0 0 0 0 0 0 0 0 0 0 0 0 0 0 0.1 0"/>
<feBlend mode="normal" in2="BackgroundImageFix" result="effect1_dropShadow_88_570"/>
<feColorMatrix in="SourceAlpha" type="matrix" values="0 0 0 0 0 0 0 0 0 0 0 0 0 0 0 0 0 0 127 0" result="hardAlpha"/>
<feOffset dx="1"/>
<feGaussianBlur stdDeviation="0.5"/>
<feColorMatrix type="matrix" values="0 0 0 0 0 0 0 0 0 0 0 0 0 0 0 0 0 0 0.09 0"/>
<feBlend mode="normal" in2="effect1_dropShadow_88_570" result="effect2_dropShadow_88_570"/>
<feColorMatrix in="SourceAlpha" type="matrix" values="0 0 0 0 0 0 0 0 0 0 0 0 0 0 0 0 0 0 127 0" result="hardAlpha"/>
<feOffset dx="2" dy="1"/>
<feGaussianBlur stdDeviation="0.5"/>
<feColorMatrix type="matrix" values="0 0 0 0 0 0 0 0 0 0 0 0 0 0 0 0 0 0 0.05 0"/>
<feBlend mode="normal" in2="effect2_dropShadow_88_570" result="effect3_dropShadow_88_570"/>
<feColorMatrix in="SourceAlpha" type="matrix" values="0 0 0 0 0 0 0 0 0 0 0 0 0 0 0 0 0 0 127 0" result="hardAlpha"/>
<feOffset dx="4" dy="2"/>
<feGaussianBlur stdDeviation="1"/>
<feColorMatrix type="matrix" values="0 0 0 0 0 0 0 0 0 0 0 0 0 0 0 0 0 0 0.01 0"/>
<feBlend mode="normal" in2="effect3_dropShadow_88_570" result="effect4_dropShadow_88_570"/>
<feBlend mode="normal" in="SourceGraphic" in2="effect4_dropShadow_88_570" result="shape"/>
</filter>
</defs>
</svg>
