<svg xmlns="http://www.w3.org/2000/svg" width="14" height="14" viewBox="0 0 14 14" fill="none">
  <path fill-rule="evenodd" clip-rule="evenodd" d="M4.7205 1.50352C4.31095 1.50352 4.03025 1.50352 3.77971 1.57153C3.52041 1.64269 3.27898 1.7676 3.0711 1.93813C2.86321 2.10867 2.69352 2.32102 2.57304 2.56141C2.45698 2.79251 2.40227 3.06811 2.32199 3.46999L2.00499 5.054C1.94884 5.33168 1.95427 5.61829 2.02088 5.89365C2.08748 6.169 2.21366 6.4264 2.39051 6.64772V8.05124C2.39051 8.99101 2.39051 9.73547 2.46874 10.3178C2.54952 10.9171 2.71927 11.4023 3.10173 11.7853C3.48418 12.1677 3.9694 12.3375 4.56916 12.4183C5.15153 12.4965 5.89599 12.4965 6.83525 12.4965H7.40432C8.34409 12.4965 9.08855 12.4965 9.67092 12.4183C10.2702 12.3375 10.7554 12.1677 11.1384 11.7853C11.5208 11.4023 11.6906 10.9171 11.7713 10.3178C11.8496 9.73496 11.8496 8.99101 11.8496 8.05124V6.64823C12.0264 6.42681 12.1525 6.1693 12.219 5.89386C12.2856 5.61841 12.2909 5.33172 12.2346 5.054L11.9176 3.46999C11.8378 3.06811 11.7826 2.79251 11.667 2.56141C11.5465 2.32097 11.3767 2.10858 11.1688 1.93804C10.9608 1.7675 10.7192 1.64263 10.4599 1.57153C10.2098 1.50352 9.92913 1.50352 9.51906 1.50352H4.7205ZM10.3249 7.38348C10.5851 7.38395 10.8428 7.33214 11.0826 7.23112V8.02261C11.0826 8.99766 11.0816 9.69047 11.011 10.2161C10.942 10.7299 10.8121 11.0265 10.5959 11.2428C10.3796 11.4591 10.083 11.5889 9.56815 11.658C9.30711 11.69 9.04468 11.7095 8.78177 11.7162V10.3071C8.78177 10.0821 8.78177 9.88784 8.76745 9.72933C8.75211 9.5606 8.71837 9.39392 8.62736 9.23695C8.52649 9.06202 8.38137 8.91671 8.20655 8.81564C8.04959 8.72514 7.8829 8.69139 7.71417 8.67605C7.55567 8.66174 7.36137 8.66174 7.1364 8.66174H7.10317C6.87819 8.66174 6.68441 8.66174 6.5254 8.67605C6.35667 8.69139 6.1905 8.72514 6.03353 8.81564C5.85853 8.91664 5.71322 9.06195 5.61221 9.23695C5.52171 9.39392 5.48797 9.5606 5.47263 9.72882C5.45831 9.88835 5.45831 10.0821 5.45831 10.3066V11.7162C5.19506 11.7095 4.93229 11.6901 4.67091 11.658C4.15705 11.5889 3.8605 11.4591 3.64422 11.2428C3.42794 11.0265 3.29807 10.7299 3.22904 10.2156C3.15797 9.69047 3.15746 8.99766 3.15746 8.02261V7.23112C3.56608 7.40346 4.02128 7.43121 4.44782 7.30979C4.87436 7.18838 5.2467 6.92506 5.50331 6.56336C5.68882 6.81808 5.93206 7.02521 6.21309 7.16777C6.49411 7.31032 6.80492 7.38425 7.12004 7.38348C7.43516 7.38425 7.74597 7.31032 8.02699 7.16777C8.30802 7.02521 8.55126 6.81808 8.73677 6.56336C8.91651 6.81719 9.15457 7.02416 9.43092 7.16688C9.70727 7.30959 10.0138 7.38388 10.3249 7.38348ZM6.22526 11.7285C6.42365 11.7292 6.63669 11.7295 6.86439 11.7295H7.37569C7.60339 11.7295 7.81643 11.7292 8.01482 11.7285V10.3235C8.01482 10.0775 8.01431 9.91851 8.00357 9.79836C7.99334 9.68332 7.97545 9.64139 7.96318 9.62043C7.92955 9.56226 7.88124 9.51395 7.82308 9.48033C7.80212 9.46806 7.76019 9.45067 7.64515 9.43994C7.47033 9.42927 7.29516 9.42552 7.12004 9.42869C6.8741 9.42869 6.71509 9.42869 6.59493 9.43994C6.47938 9.45016 6.43796 9.46806 6.417 9.48033C6.35865 9.51388 6.31016 9.5622 6.27639 9.62043C6.26463 9.64088 6.24674 9.68332 6.23651 9.79836C6.22578 9.91851 6.22526 10.0775 6.22526 10.3235V11.7285ZM5.41741 2.27048H4.77726C4.28948 2.27048 4.12024 2.27406 3.98321 2.31138C3.82766 2.35404 3.68282 2.42894 3.55809 2.53121C3.43336 2.63348 3.33153 2.76083 3.25921 2.905C3.19529 3.03231 3.15899 3.19695 3.06338 3.67553L2.75762 5.20432C2.72503 5.36162 2.72488 5.52391 2.75716 5.68127C2.78944 5.83864 2.85348 5.98776 2.94537 6.11952C3.03726 6.25128 3.15506 6.36292 3.29157 6.4476C3.42807 6.53228 3.58042 6.58822 3.73929 6.612C3.89816 6.63579 4.06021 6.62692 4.21553 6.58593C4.37085 6.54494 4.51618 6.4727 4.64263 6.37363C4.76907 6.27455 4.87398 6.15072 4.95093 6.00971C5.02789 5.86871 5.07527 5.71348 5.09018 5.55354L5.12546 5.20279L5.1275 5.18131L5.41741 2.27048ZM5.88832 5.27437L6.18896 2.27048H8.05112L8.34972 5.2575C8.36645 5.42841 8.34738 5.60093 8.29372 5.76406C8.24006 5.9272 8.15299 6.07735 8.03806 6.20496C7.92314 6.33256 7.78287 6.43481 7.62623 6.50519C7.46958 6.57557 7.29998 6.61252 7.12826 6.6137C6.95653 6.61487 6.78644 6.58025 6.62885 6.51203C6.47125 6.44381 6.3296 6.34349 6.21293 6.21747C6.09627 6.09145 6.00715 5.9425 5.95125 5.78012C5.89536 5.61774 5.87393 5.44549 5.88832 5.27437ZM10.2569 2.31138C10.1198 2.27406 9.9506 2.27048 9.46282 2.27048H8.82165L9.15042 5.55303C9.16581 5.71251 9.2135 5.86719 9.2906 6.00765C9.36769 6.14811 9.47257 6.27141 9.59884 6.37004C9.72512 6.46866 9.87015 6.54055 10.0251 6.58133C10.18 6.62211 10.3417 6.63091 10.5001 6.60722C10.6586 6.58353 10.8106 6.52782 10.9468 6.4435C11.0831 6.35919 11.2007 6.24802 11.2926 6.11677C11.3845 5.98552 11.4488 5.83694 11.4814 5.68007C11.514 5.5232 11.5144 5.36133 11.4825 5.20432L11.1772 3.67553C11.0811 3.19695 11.0448 3.03231 10.9814 2.905C10.909 2.76077 10.8071 2.63339 10.6823 2.53112C10.5575 2.42885 10.4125 2.35398 10.2569 2.31138Z" fill="black"/>
</svg>